<?xml version="1.0" standalone="no"?>
<!DOCTYPE svg PUBLIC "-//W3C//DTD SVG 20010904//EN"
 "http://www.w3.org/TR/2001/REC-SVG-20010904/DTD/svg10.dtd">
<svg version="1.0" xmlns="http://www.w3.org/2000/svg"
 width="120.000000pt" height="120.000000pt" viewBox="0 0 120.000000 120.000000"
 preserveAspectRatio="xMidYMid meet">
<metadata>
Created by potrace 1.11, written by Peter Selinger 2001-2013
</metadata>
<g transform="translate(0.000000,120.000000) scale(0.100000,-0.100000)"
fill="#000000" stroke="none">
<path d="M80 1180 c13 -24 -5 -63 -50 -108 -28 -29 -30 -35 -30 -107 0 -66 2
-76 16 -71 8 3 33 -3 54 -14 22 -11 42 -20 44 -20 3 0 35 27 72 60 68 62 94
71 128 45 25 -19 57 -19 82 0 26 20 50 19 74 -5 32 -32 24 -57 -35 -117 -60
-59 -70 -62 -142 -32 -28 12 -34 11 -52 -6 -25 -22 -26 -43 -4 -90 16 -34 16
-35 -7 -60 -13 -14 -32 -25 -42 -25 -10 0 -56 37 -103 81 l-84 81 0 -316 c0
-263 2 -317 14 -324 43 -23 88 -132 55 -132 -5 0 -10 -4 -10 -10 0 -6 52 -10
137 -10 131 0 136 1 120 18 -20 22 -21 41 -3 64 20 27 62 23 82 -7 15 -23 15
-27 0 -50 l-16 -25 90 0 c53 0 90 4 90 10 0 13 57 13 65 0 4 -6 70 -10 165
-10 l159 0 -6 35 c-7 44 10 65 51 65 24 0 42 -11 79 -50 42 -43 54 -50 88 -50
l39 0 0 123 c0 80 -4 127 -12 135 -9 9 -8 25 2 68 12 50 12 59 -5 90 -17 31
-17 35 -1 58 11 18 16 48 16 99 l0 73 -87 -83 c-49 -46 -98 -86 -111 -89 -16
-5 -33 0 -53 15 -36 27 -59 21 -93 -23 -32 -43 -90 -79 -113 -72 -10 3 -24 15
-31 26 -17 28 5 79 57 125 23 21 41 46 41 56 0 11 -14 34 -31 52 -17 17 -39
41 -48 53 -59 75 -141 23 -95 -61 18 -34 18 -35 -4 -74 -19 -33 -21 -44 -11
-62 25 -47 28 -77 10 -93 -32 -29 -67 -20 -121 32 -56 54 -61 77 -30 127 l20
32 -25 33 c-14 19 -25 40 -25 48 0 17 160 183 194 201 20 11 29 10 64 -8 23
-12 44 -21 47 -21 4 0 65 57 136 128 168 164 187 174 224 118 15 -22 15 -28 2
-53 -8 -15 -32 -44 -53 -64 -22 -20 -46 -45 -56 -55 -9 -11 -44 -46 -77 -79
-69 -68 -82 -96 -56 -125 20 -22 43 -21 90 4 27 14 32 14 63 -4 30 -18 36 -19
69 -5 43 18 75 19 91 3 19 -19 16 131 -4 171 -15 30 -15 34 0 50 13 14 16 41
16 134 l0 117 -205 0 c-206 0 -255 -7 -255 -37 0 -8 4 -12 9 -9 5 3 23 -10 40
-29 82 -94 -7 -230 -120 -182 -19 8 -57 38 -85 66 -54 53 -76 60 -108 36 -27
-20 -59 -19 -79 3 -27 30 -20 59 26 107 l44 45 -199 0 c-195 0 -199 0 -188
-20z m230 -59 c21 -17 23 -23 15 -47 -6 -14 -19 -33 -31 -41 -18 -12 -24 -11
-47 8 -33 25 -35 62 -5 83 29 20 37 20 68 -3z m72 -558 c34 -31 17 -83 -27
-83 -43 0 -60 47 -28 82 20 22 31 23 55 1z m-148 -165 c9 -12 16 -29 16 -37 0
-22 -48 -79 -91 -108 -37 -24 -40 -25 -64 -9 -15 10 -28 23 -31 31 -8 20 23
73 64 111 44 40 84 44 106 12z m162 -3 c33 -50 -20 -104 -71 -71 -29 19 -32
51 -8 78 23 26 59 23 79 -7z m242 -88 c12 -24 11 -32 -3 -54 -17 -25 -17 -30
2 -116 7 -35 -11 -57 -49 -57 -22 0 -41 12 -79 51 -72 74 -65 109 35 187 39
30 77 26 94 -11z m476 1 c13 -38 -8 -82 -57 -118 -46 -34 -72 -37 -99 -13 -32
29 -22 62 35 115 41 39 58 48 82 46 22 -2 32 -10 39 -30z"/>
<path d="M535 220 c-3 -5 -1 -18 4 -27 9 -16 10 -14 11 10 0 28 -5 34 -15 17z"/>
<path d="M574 1189 c12 -8 25 -8 40 -1 18 9 16 11 -19 11 -33 0 -37 -1 -21
-10z"/>
<path d="M685 1150 c-3 -5 -1 -10 4 -10 6 0 11 5 11 10 0 6 -2 10 -4 10 -3 0
-8 -4 -11 -10z"/>
<path d="M696 1052 c-24 -33 -24 -37 -9 -54 23 -25 37 -23 68 13 23 28 24 34
12 52 -21 32 -43 28 -71 -11z"/>
<path d="M1055 621 c-6 -11 9 -23 19 -14 9 9 7 23 -3 23 -6 0 -12 -4 -16 -9z"/>
<path d="M890 599 c0 -25 33 -22 38 4 2 12 -3 17 -17 17 -15 0 -21 -6 -21 -21z"/>
</g>
</svg>
